<svg xmlns="http://www.w3.org/2000/svg"  viewBox="0 0 47.153 47.153">
  <path id="iconmonstr-brightness-2" d="M33.4,23.577a9.824,9.824,0,1,1-9.824-9.824A9.822,9.822,0,0,1,33.4,23.577Zm-18.044-11L8.3,5.515,5.517,8.293l7.061,7.063A13.848,13.848,0,0,1,15.356,12.576Zm8.22-2.753a13.8,13.8,0,0,1,1.965.157V0H21.612V9.981A13.8,13.8,0,0,1,23.577,9.824Zm11,5.531,7.061-7.063L38.858,5.513,31.8,12.576A13.889,13.889,0,0,1,34.575,15.354ZM9.824,23.577a13.8,13.8,0,0,1,.157-1.965H0v3.929H9.981A13.8,13.8,0,0,1,9.824,23.577Zm21.975,11,7.061,7.059,2.78-2.778L34.579,31.8A13.909,13.909,0,0,1,31.8,34.575ZM12.576,31.8,5.517,38.856,8.3,41.634l7.059-7.059A13.889,13.889,0,0,1,12.576,31.8Zm24.6-10.185a12.358,12.358,0,0,1,0,3.929h9.981V21.612ZM23.577,37.33a13.8,13.8,0,0,1-1.965-.157v9.981h3.929V37.172A13.8,13.8,0,0,1,23.577,37.33Z" fill="#fff"/>
</svg>
