<svg xmlns="http://www.w3.org/2000/svg"  viewBox="0 0 60.166 60.166">
  <path id="iconmonstr-weather-2" d="M10.2,32.59H0V27.576H10.2a18.253,18.253,0,0,0,0,5.014Zm7.606-18.331L10.584,7.037,7.039,10.582,14.262,17.8A20.1,20.1,0,0,1,17.807,14.259Zm28.1,3.545,7.222-7.222L49.584,7.037l-7.222,7.222A20.359,20.359,0,0,1,45.907,17.8ZM30.083,10.028a20.173,20.173,0,0,1,2.507.173V0H27.576V10.2A20.173,20.173,0,0,1,30.083,10.028Zm0,40.111a20.172,20.172,0,0,1-2.507-.173v10.2H32.59v-10.2A20.172,20.172,0,0,1,30.083,50.138ZM49.965,27.576a18.253,18.253,0,0,1,0,5.014h10.2V27.576Zm-7.6,18.331,7.22,7.22,3.547-3.545-7.22-7.22a20.373,20.373,0,0,1-3.547,3.545Zm-28.1-3.547-7.22,7.22,3.545,3.545L17.8,45.9a20.187,20.187,0,0,1-3.545-3.545Zm5.8-12.276A10.028,10.028,0,1,0,30.083,20.055,10.038,10.038,0,0,0,20.055,30.083Zm25.069,0A15.041,15.041,0,1,1,30.083,15.041,15.041,15.041,0,0,1,45.124,30.083Z" fill="#fff"/>
</svg>
