<svg xmlns="http://www.w3.org/2000/svg"  viewBox="0 0 60.166 60.166">
  <path id="iconmonstr-weather-17" d="M6.007,22.562H0V17.548H6.007ZM25.069,6.373V0H20.055V6.373Zm-12.016,2.2-4.66-4.66L4.848,7.453l4.66,4.66Zm23.119-5.4-4.7,4.7,3.545,3.545,4.7-4.7L36.172,3.164ZM7.443,29.9,2.3,34.35l3.267,3.8,5.147-4.445Zm52.723,7A10.822,10.822,0,0,1,49.251,47.631H23.45A10.822,10.822,0,0,1,12.535,36.907a10.483,10.483,0,0,1,1.439-5.3,12.36,12.36,0,0,1-3.946-9.047A12.533,12.533,0,0,1,22.562,10.028a12.362,12.362,0,0,1,8.559,3.45,15.025,15.025,0,0,1,5.229-.943A14.76,14.76,0,0,1,51.2,26.363,10.776,10.776,0,0,1,60.166,36.907ZM15.041,22.562a7.408,7.408,0,0,0,2.394,5.445A10.922,10.922,0,0,1,21.5,26.363a14.512,14.512,0,0,1,5-10.143,7.374,7.374,0,0,0-3.941-1.178A7.53,7.53,0,0,0,15.041,22.562Zm1.053,37.6L12.56,56.631l6.493-6.493,3.535,3.535ZM35,53.673l-3.535-3.535-6.493,6.493,3.535,3.535Zm12.221,0L43.69,50.138,37.2,56.631l3.535,3.535Z" fill="#fff"/>
</svg>
