<svg xmlns="http://www.w3.org/2000/svg"  viewBox="0 0 40.111 60.166">
  <path id="iconmonstr-weather-128" d="M16.582,38.616q-.73,0-1.058-.913a8.707,8.707,0,0,1-.328-2.763,8.587,8.587,0,0,1,.328-2.75c.218-.6.572-.9,1.058-.9q1.4,0,1.4,3.645Q17.981,38.62,16.582,38.616Zm14.934,1.2q-.73,0-1.058.9a8.576,8.576,0,0,0-.328,2.75,8.7,8.7,0,0,0,.328,2.763c.218.607.572.913,1.058.913q1.4,0,1.4-3.675Q32.915,39.812,31.516,39.812Zm12.595.486A20.056,20.056,0,0,1,4,40.3C4,25.54,18.207,22.457,24.055,0,29.9,22.457,44.111,25.54,44.111,40.3ZM16.552,41.635a4.509,4.509,0,0,0,3.805-1.685,8.183,8.183,0,0,0,1.3-5.039,8,8,0,0,0-1.319-4.936,4.474,4.474,0,0,0-3.785-1.727q-5.031,0-5.031,6.666a8.12,8.12,0,0,0,1.314,4.994,4.39,4.39,0,0,0,3.718,1.727ZM31.689,28.554h-3.5L16.362,49.875h3.5L31.689,28.554Zm4.9,14.876a8,8,0,0,0-1.321-4.936,4.474,4.474,0,0,0-3.785-1.727q-5.031,0-5.031,6.663a8.121,8.121,0,0,0,1.311,4.981,4.409,4.409,0,0,0,3.723,1.727,4.509,4.509,0,0,0,3.805-1.685,8.154,8.154,0,0,0,1.3-5.024Z" transform="translate(-4)" fill="#fff"/>
</svg>
