<?xml version="1.0" encoding="UTF-8"?>
<svg id="Ebene_2" data-name="Ebene 2" xmlns="http://www.w3.org/2000/svg" viewBox="0 0 46.11 39.61">
  <defs>
    <style>
      .cls-1 {
        fill: #fff;
        stroke-width: 0px;
      }
    </style>
  </defs>
  <g id="AnimationOff">
    <g>
      <path id="iconmonstr-audio-22" class="cls-1" d="m38.55,2.09l-2.55-2.09-5.69,7.01-9.91,12.21-3.3,4.07-5.21,6.42-6.34,7.81,2.55,2.09L38.55,2.1h0Z"/>
      <g id="Gruppe_25" data-name="Gruppe 25">
        <path id="Pfad_5" data-name="Pfad 5" class="cls-1" d="m10.38,9.1c1.58-1.12,3.56-1.82,6.18,1.47,1.77,2.69,3.13,5.63,4.04,8.72l1.58-1.94.81-1.01c-.93-2.73-2.22-5.32-3.85-7.7l-.04-.05c-4.25-5.35-8.46-3.63-10.57-2.13-.97.75-1.83,1.64-2.54,2.65-.16.2-.32.4-.49.61l-.06.08c-1.51,2.22-2.78,4.6-3.78,7.09v.03c-.61,1.46-1.11,2.87-1.59,4.43-.26.85.21,1.75,1.06,2.02.85.26,1.75-.21,2.02-1.06.45-1.46.92-2.78,1.48-4.15.91-2.26,2.05-4.41,3.41-6.43.16-.2.32-.4.48-.6.53-.75,1.16-1.42,1.87-2"/>
        <path id="Pfad_6" data-name="Pfad 6" class="cls-1" d="m45.04,20.29c-.84-.29-1.76.15-2.05.99h0c-3.43,9.76-6.42,12.88-8.34,13.76-.92.4-3.63,1.52-6.94-5.08-.1-.23-.21-.45-.33-.66-.07-.13-.14-.26-.2-.4l-.02-.04c-.74-1.71-1.39-3.46-1.93-5.25l-2.41,2.97c.44,1.27.9,2.46,1.39,3.56.1.24.21.47.34.7.07.13.14.27.2.4l.05.11c2.8,5.61,5.82,7.25,8.39,7.25.95-.01,1.89-.22,2.76-.61h.03c3.66-1.7,6.94-6.82,10.04-15.65.29-.84-.15-1.76-.99-2.05"/>
      </g>
    </g>
  </g>
</svg>