<svg id="Gruppe_22" data-name="Gruppe 22" xmlns="http://www.w3.org/2000/svg" xmlns:xlink="http://www.w3.org/1999/xlink" width="62.603" height="45.662" viewBox="0 0 62.603 45.662">
  <defs>
    <clipPath id="clip-path">
      <rect id="Rechteck_5" data-name="Rechteck 5" width="62.603" height="45.662" fill="#fff"/>
    </clipPath>
  </defs>
  <g id="Gruppe_21" data-name="Gruppe 21" transform="translate(0 0)" clip-path="url(#clip-path)">
    <path id="Pfad_4" data-name="Pfad 4" d="M45.059,45.662c-3.49,0-7.592-2.218-11.39-9.837l-.069-.152a5.1,5.1,0,0,0-.272-.55,9.5,9.5,0,0,1-.464-.954,73.357,73.357,0,0,1-3.077-8.52l-.02-.073c-2.113-8.1-4.629-14.307-7.277-17.955-3.566-4.463-6.243-3.515-8.393-2a13.959,13.959,0,0,0-2.533,2.719c-.212.268-.427.538-.646.809a47.587,47.587,0,0,0-4.632,8.731c-.755,1.86-1.394,3.652-2.008,5.637A2.187,2.187,0,1,1,.1,22.228c.654-2.115,1.335-4.024,2.143-6.01l.016-.039A51.481,51.481,0,0,1,7.392,6.563l.085-.112c.224-.276.443-.552.659-.824A17.134,17.134,0,0,1,11.59,2.041c2.872-2.029,8.58-4.37,14.353,2.894L26,5.007c3.016,4.135,5.705,10.671,7.993,19.428a68.963,68.963,0,0,0,2.889,8l.025.058a5.165,5.165,0,0,0,.271.55,9.623,9.623,0,0,1,.442.9c4.492,8.964,8.179,7.436,9.424,6.9,2.6-1.212,6.665-5.441,11.309-18.685A2.187,2.187,0,0,1,62.479,23.6c-4.2,11.988-8.66,18.928-13.625,21.22l-.045.02a9.42,9.42,0,0,1-3.75.824" transform="translate(0 0)" fill="#fff"/>
  </g>
</svg>
