<svg xmlns="http://www.w3.org/2000/svg" width="71.29" height="59.408" viewBox="0 0 71.29 59.408">
  <path id="iconmonstr-audio-21" d="M17.823,16.852,41.586,2V61.408L17.823,46.556ZM0,46.556H11.882v-29.7H0Zm60.193-39.4L55.746,11.6a27.886,27.886,0,0,1,8.861,20.1,27.863,27.863,0,0,1-8.861,20.1l4.45,4.45A33.531,33.531,0,0,0,71.29,31.7a33.528,33.528,0,0,0-11.1-24.548ZM58.74,31.7a22.26,22.26,0,0,0-7.081-16.014l-4.465,4.465A16.607,16.607,0,0,1,52.057,31.7,16.619,16.619,0,0,1,47.2,43.262l4.465,4.465A22.278,22.278,0,0,0,58.74,31.7Z" transform="translate(0 -2)" fill="#fff"/>
</svg>
