<svg xmlns="http://www.w3.org/2000/svg" width="31" height="74.4" viewBox="0 0 31 74.4">
  <path id="iconmonstr-beer-8" d="M31.319,29.124c-1.659-3.85-3.252-17.208-3.252-18.467,0-3.364,2.926-1.531.18-9.306C27.928.45,25.212,0,22.5,0S17.072.45,16.753,1.349c-2.675,7.583.18,6.132.18,9.306,0,1.255-1.593,14.616-3.252,18.467S7,34.292,7,42.433V70.007C7,74.137,10.58,74.4,22.5,74.4S38,74.137,38,70.007V42.433c0-8.141-5.025-9.458-6.68-13.308ZM19.4,43.66l.015,24.54c-1.575.2-5.571.428-6.215-.567V43.254C13.2,34.7,17.438,37.4,20.962,27A79.467,79.467,0,0,0,19.4,43.66Z" transform="translate(-7)" fill="#fff"/>
</svg>
