<?xml version="1.0" encoding="UTF-8" standalone="no"?><svg xmlns:dc="http://purl.org/dc/elements/1.1/" xmlns:cc="http://creativecommons.org/ns#" xmlns:rdf="http://www.w3.org/1999/02/22-rdf-syntax-ns#" xmlns:svg="http://www.w3.org/2000/svg" xmlns="http://www.w3.org/2000/svg" width="48" height="48" viewBox="0 0 48 48.000001" id="svg69809" version="1.1"><defs id="defs69811" /><path d="m 48,2.3 -21.124,8 v 8.5 h 8.385 c 0,0 3.891,7.5 3.901,14.5 0.01,6.9 -4.458,13.7 -4.458,13.7 H 15.752 c 0,0 -4.638,-6.8 -4.638,-13.7 0,-6.9 3.836,-14.5 3.836,-14.5 h 8.563 V 11.6 L -5.1315e-4,20.7 0.12111,18.7 46.234,0.9 Z M 37.104,31.9 c 0,0 -0.256,-2.4 -0.814,-5 C 35.875,25 34.855,22.7 34.855,22.7 H 15.412 c 0,0 -0.831,2.2 -1.293,4 -0.446,1.7 -0.898,5.2 -0.898,5.2 z" style="fill-rule:evenodd;stroke:none;stroke-width:1.16912" id="path42671" /></svg>