<?xml version="1.0" encoding="UTF-8" standalone="no"?><svg xmlns:dc="http://purl.org/dc/elements/1.1/" xmlns:cc="http://creativecommons.org/ns#" xmlns:rdf="http://www.w3.org/1999/02/22-rdf-syntax-ns#" xmlns:svg="http://www.w3.org/2000/svg" xmlns="http://www.w3.org/2000/svg" width="40" height="40" viewBox="0 0 10.58333 10.58333" version="1.1" id="svg5030"><defs id="defs5024" /><path d="m 204.27,157.07 v -2.05 l 15.69,-5.03 h 6.39 z m 2.11,16.48 c -0.94,-1.86 1.48,-3.07 2.41,-1.24 l 2.95,5.79 c 0.64,1.18 1.88,1.99 3.33,1.99 0.45,0 0.87,0 1.28,-0.32 l 3.71,-1.08 c 1.97,-0.59 2.73,1.99 0.75,2.58 l -3.91,1.14 c -0.58,0.33 -1.21,0.33 -1.86,0.33 -2.51,0 -4.68,-1.4 -5.75,-3.5 l -2.91,-5.75 z m 8.79,-8.2 1.82,3.55 v -17.09 l -1.82,0.63 z m -5.66,3.95 c -1.66,-3.13 3.11,-5.72 4.86,-2.64 l 3.43,6.5 6.52,-1.86 c 1.08,-0.33 2.57,0.88 2.57,2.25 l 0,9.29 c 0,2.32 -3.4,2.32 -3.4,0 0,-2.16 -0.1,-6.77 -0.1,-6.77 l -6.8,2.06 c -1.5,0.43 -2.73,-0.32 -3.31,-1.4 l -3.83,-7.39 z m 1.29,-4.34 c 1.66,-0.49 2.62,-2.26 2.13,-3.93 -0.49,-1.66 -2.24,-2.61 -3.91,-2.12 -1.67,0.46 -2.63,2.22 -2.14,3.89 0.49,1.67 2.23,2.65 3.92,2.16 z" style="fill-opacity:1;fill-rule:evenodd" transform="matrix(0.30588,0,0,0.30588,-62.303,-45.877)" id="polygon1814-2" /></svg>