<svg clip-rule="evenodd" fill-rule="evenodd" stroke-linejoin="round" stroke-miterlimit="2" x="0px" y="0px" viewBox="0 0 14.1 14.1" xmlns="http://www.w3.org/2000/svg"><path d="M7.1,6l5.7-5.7C12.9,0.1,13.1,0,13.3,0c0.4,0,0.8,0.3,0.8,0.7c0,0.2-0.1,0.4-0.2,0.5L8.1,7l5.7,5.7
	c0.1,0.1,0.2,0.3,0.2,0.5c0,0.4-0.3,0.8-0.8,0.8c-0.2,0-0.4-0.1-0.5-0.2L7.1,8.1l-5.7,5.7C1.2,14,1,14,0.8,14
	c-0.4,0-0.8-0.3-0.8-0.8c0-0.2,0.1-0.4,0.2-0.5L6,7L0.3,1.3C0.1,1.2,0.1,1,0.1,0.8C0.1,0.4,0.4,0,0.8,0C1,0,1.2,0.1,1.3,0.3L7.1,6z"
/></svg>