<?xml version="1.0" encoding="UTF-8" standalone="no"?><svg width="48" height="48" viewBox="0 0 48 48.000001" id="svg69016" version="1.1" xmlns="http://www.w3.org/2000/svg" xmlns:svg="http://www.w3.org/2000/svg" xmlns:rdf="http://www.w3.org/1999/02/22-rdf-syntax-ns#" xmlns:cc="http://creativecommons.org/ns#" xmlns:dc="http://purl.org/dc/elements/1.1/"><defs id="defs69018" /><path d="m 7.4488,47.3 c 0,0 4.6462,-2.1 7.0742,-2.9 l 6.409,-2.2 -5.076,-7 -4.218,-4.2 -0.03,1.3 -1.27,0.6 L 7.7092,30 8.3576,28.6 9.0784,28.3 C 8.1113,28.1 6.3862,27.1 6.3489,25.2 c -0.073,-2.8 -0.063,-9.2 0,-10 0.1187,-1.8 0.5751,-2.3 1.5975,-3.1 0.5107,-0.4 1.1591,-0.5 1.1591,-0.5 l 2.3105,0.1 c 0,0 0.675,0.2 0.866,0.6 0.202,0.3 0.758,0.5 0.758,0.5 L 23.475,14.3 37.616,0.1 40.482,0 27.3,13.1 c -0.255,0.8 -0.512,2 -0.767,2.3 -0.264,0.3 -0.165,0.7 -1.022,0.9 l -1.58,0.2 -10.197,10.2 2.018,3.3 8.763,10.1 1.479,0.4 c 6.007,-2 12.206,-4 12.808,-4.3 1.141,-0.6 1.954,-1.7 2.081,-3.4 0.08,-0.9 0.383,-0.4 0.575,0 0.192,0.3 0.338,1.1 0.146,2.2 -0.2,1.2 -1.396,2.5 -3.176,3.2 L 11.05,47.3 C 9.8636,47.7 7.8368,48 7.8368,48 Z m 13.9942,-31 -6.682,-0.6 c -0.557,-0.1 -1.352,0 -1.406,0.7 l -0.05,5.3 c 0,0.4 -0.09,1.8 -0.2,2.9 z M 9.1837,5.8378 c 0,-1.6698 1.3603,-3.0313 3.0313,-3.0313 1.679,0 3.039,1.3615 3.039,3.0313 0,1.6789 -1.36,3.0392 -3.039,3.0392 -1.671,0 -3.0313,-1.3603 -3.0313,-3.0392" style="fill-opacity:1;fill-rule:evenodd;stroke:none;stroke-width:1.12976" id="path55428" /></svg>