<svg xmlns="http://www.w3.org/2000/svg" width="47.527" height="65.349" viewBox="0 0 47.527 65.349">
  <path id="iconmonstr-control-panel-6" d="M42.615,21.793a2.97,2.97,0,1,1-2.97,2.97A2.973,2.973,0,0,1,42.615,21.793Zm0-5.941a8.911,8.911,0,1,0,8.911,8.911A8.911,8.911,0,0,0,42.615,15.852Zm-29.7,17.823a8.911,8.911,0,1,0,8.911,8.911A8.911,8.911,0,0,0,12.911,33.675Zm29.7-23.763a14.816,14.816,0,0,1,2.97.3V3.97a2.97,2.97,0,1,0-5.941,0v6.241a14.816,14.816,0,0,1,2.97-.3Zm-29.7,17.823a14.816,14.816,0,0,1,2.97.3V3.97a2.97,2.97,0,1,0-5.941,0V28.034A14.816,14.816,0,0,1,12.911,27.734Zm29.7,11.882a14.816,14.816,0,0,1-2.97-.3V63.379a2.97,2.97,0,1,0,5.941,0V39.315A14.816,14.816,0,0,1,42.615,39.615Zm-29.7,17.823a14.816,14.816,0,0,1-2.97-.3v6.241a2.97,2.97,0,1,0,5.941,0V57.138A14.816,14.816,0,0,1,12.911,57.438Z" transform="translate(-4 -1)" fill="#fff"/>
</svg>
