<?xml version="1.0" encoding="UTF-8" standalone="no"?><svg xmlns:dc="http://purl.org/dc/elements/1.1/" xmlns:cc="http://creativecommons.org/ns#" xmlns:rdf="http://www.w3.org/1999/02/22-rdf-syntax-ns#" xmlns:svg="http://www.w3.org/2000/svg" xmlns="http://www.w3.org/2000/svg" width="48" height="48" viewBox="0 0 48 48.000001" id="svg69016" version="1.1"><defs id="defs69018" /><path d="m 15.478,13 -0.248,-0.5 0.04,-2 15.886,-6.3 1.367,1.4 0.238,0.7 13.56,-5.2 1.68,1.3 -21.156,8.1 4.472,13.8 h 9.695 c 1.643,0 2.962,1.3 2.962,3 v 16.6 c 0,1.6 -1.319,2.9 -2.962,2.9 H 8.3553 c -1.6417,0 -2.972,-1.3 -2.972,-2.9 V 27.3 c 0,-1.7 1.3303,-3 2.972,-3 H 18.489 c 0.578,-1.8 2.581,-7.9 4.015,-12.1 L -7.966e-6,20.9 0.12338,19 Z m 8.204,2.6 h 2.45 L 24.898,11.8 Z M 22.229,20 h 5.336 l -0.779,-2.4 h -3.768 z m -1.462,4.5 h 8.271 L 28.221,22 H 21.573 Z M 35.285,37.6 H 42.18 V 27.5 h -6.895 z m -9.305,0 h 6.894 V 27.5 H 25.98 Z m -9.306,0 H 23.91 V 27.5 h -7.236 z m -9.3058,0 H 14.604 V 27.5 H 7.3682 Z" style="fill-opacity:1;fill-rule:nonzero;stroke:none;stroke-width:1.17515" id="path55364" /></svg>