<svg xmlns="http://www.w3.org/2000/svg" width="59.394" height="59.394" viewBox="0 0 59.394 59.394">
  <path id="iconmonstr-info-lined" d="M31.7,2.005a29.7,29.7,0,1,1-29.7,29.7A29.712,29.712,0,0,1,31.7,2.005Zm0,4.456A25.241,25.241,0,1,0,56.943,31.7,25.25,25.25,0,0,0,31.7,6.461Zm0,19.308A2.229,2.229,0,0,0,29.472,28V44.333a2.228,2.228,0,0,0,4.456,0V28A2.229,2.229,0,0,0,31.7,25.768Zm-.006-8.911a2.97,2.97,0,1,1-2.97,2.97A2.972,2.972,0,0,1,31.694,16.857Z" transform="translate(-2.005 -2.005)" fill="#fff"/>
</svg>
