<svg xmlns="http://www.w3.org/2000/svg" width="45" height="34.524" viewBox="0 0 45 34.524">
  <path id="iconmonstr-menu-lined" d="M47,38.272c0-1.243-.756-2.252-1.687-2.252H3.687C2.756,36.021,2,37.03,2,38.272s.756,2.252,1.687,2.252H45.313C46.244,40.524,47,39.515,47,38.272Zm0-15.01c0-1.243-.756-2.252-1.687-2.252H3.687C2.756,21.01,2,22.019,2,23.262s.756,2.252,1.687,2.252H45.313C46.244,25.514,47,24.5,47,23.262Zm0-15.01C47,7.009,46.244,6,45.313,6H3.687C2.756,6,2,7.009,2,8.252S2.756,10.5,3.687,10.5H45.313C46.244,10.5,47,9.494,47,8.252Z" transform="translate(-2 -6)" fill="#fff"/>
</svg>
