<?xml version="1.0" encoding="UTF-8" standalone="no"?><svg id="svg31309" version="1.1" viewBox="0 0 12.7 12.7" height="48" width="48" xmlns="http://www.w3.org/2000/svg" xmlns:svg="http://www.w3.org/2000/svg" xmlns:rdf="http://www.w3.org/1999/02/22-rdf-syntax-ns#" xmlns:cc="http://creativecommons.org/ns#" xmlns:dc="http://purl.org/dc/elements/1.1/"><defs id="defs31303" /><path id="path848" style="fill-opacity:1;fill-rule:nonzero;stroke:none;stroke-width:1.77537" d="M 1.998607503,1.100552544 1.713092146,1.229752231 1.532850604,1.725815226 1.196293399,1.601400712 0.9155632154,1.735385573 1.043167844,2.02090093 1.381320111,2.142125328 1.183532936,2.679659827 1.312732627,2.961985068 1.390890457,2.977935648 1.601438095,2.832785383 1.797630216,2.293655825 10.4173229,5.405613713 l 0.18024154,0.03349622 c 0.22369648,0 0.43052691,-0.140337325 0.51041851,-0.360483085 0.0958699,-0.278732791 -0.047713,-0.588049278 -0.33177203,-0.687469936 L 8.51282381,3.585652688 8.504848521,3.129466144 8.394789529,2.748247315 C 8.256310757,2.265346982 7.750857769,1.991940218 7.27505891,2.135745096 L 4.769223009,2.898182754 1.94916071,1.875750665 2.129402248,1.384472843 Z m 7.606830943,0.397169407 c -0.527977587,0.01335426 -0.949059428,0.445048845 -0.949059428,0.974580354 0,0.536161402 0.434868214,0.971390238 0.974580353,0.971390238 0.534386029,0 0.969795179,-0.435228836 0.969795179,-0.971390238 0,-0.53793677 -0.43540915,-0.974580354 -0.969795179,-0.974580354 -0.008433,0 -0.01714033,-2.11972e-4 -0.02552092,0 z M 3.868015317,3.523445436 c -0.08344235,0.154457077 -0.129199686,0.328429333 -0.129199686,0.518393809 0,0.53438603 0.37024757,0.987326929 0.870901592,1.097399809 L 6.916170891,5.978239481 5.080259292,8.514381489 0.4785173614,6.8140498 C 0.2867775194,6.74303504 0.0727901264,6.84065252 0,7.034167793 L 0.1020837064,7.442502606 0.2201179884,7.512685156 11.06491639,11.5194705 c 0.31246492,0.11717435 0.65362695,0.10480224 0.95543966,-0.0319012 0.31068956,-0.14202953 0.54016981,-0.39255066 0.65556878,-0.70501559 0.0727901,-0.1935152 -0.025188,-0.40909765 -0.21692787,-0.48011241 -0.1935152,-0.0692394 -0.40714198,0.0266027 -0.48170747,0.22011799 L 11.7157,10.80647964 11.32650588,10.82243021 6.313239019,8.970568029 8.434665975,6.042041795 C 8.550064952,5.882258595 8.583810823,5.675511386 8.528774389,5.483771552 8.470187215,5.295582442 8.326354625,5.142900755 8.136390155,5.075436739 Z" /></svg>