<?xml version="1.0" encoding="UTF-8" standalone="no"?><svg xmlns:dc="http://purl.org/dc/elements/1.1/" xmlns:cc="http://creativecommons.org/ns#" xmlns:rdf="http://www.w3.org/1999/02/22-rdf-syntax-ns#" xmlns:svg="http://www.w3.org/2000/svg" xmlns="http://www.w3.org/2000/svg" width="48" height="48" viewBox="0 0 12.7 12.7" version="1.1" id="svg5730"><defs id="defs5724" /><path d="m -1.18789e-7,11.5491 v 0.4832 L 12.7,6.818 V 6.3301 Z M 1.632991,5.3701 1.854175,5.1505 H 2.969504 L 3.192255,5.3701 V 7.1396 L 2.969504,7.3623 H 1.854175 L 1.632991,7.1396 Z M 3.603248,4.5622 3.822863,4.3442 h 1.115328 l 0.218047,0.218 V 6.3301 L 4.938191,6.5482 H 3.822863 L 3.603248,6.3301 Z M 5.571937,3.7544 5.791551,3.5332 h 1.11376 L 7.126494,3.7544 V 5.5207 L 6.905311,5.7387 H 5.791551 L 5.571937,5.5207 Z M 7.537487,2.9449 7.757102,2.7238 H 8.873999 L 9.095183,2.9449 V 4.7128 L 8.873999,4.934 H 7.757102 L 7.537487,4.7128 Z M 9.507745,2.1355 9.728928,1.9143 H 10.84582 L 11.0623,2.1355 V 3.9018 L 10.84582,4.1214 H 9.728928 L 9.507745,3.9018 Z m -8.052014,8.3783 0.04863,-0.016 9.812069,-4.0284 0.15843,-0.2337 V 1.0732 c -0.003,-0.262 -0.22432,-0.4408 -0.48785,-0.4 L 10.87249,0.7092 1.574952,4.5305 C 1.367886,4.6185 1.223568,4.8285 1.223568,5.0497 v 5.2833 l 0.232164,0.1804" style="fill-opacity:1;fill-rule:nonzero;stroke:none;stroke-width:1.568676" id="path30074" /></svg>