<svg xmlns="http://www.w3.org/2000/svg" width="38.615" height="71.29" viewBox="0 0 38.615 71.29">
  <path id="iconmonstr-weather-135" d="M21.308,5.941A4.461,4.461,0,0,1,25.763,10.4V32.749c0,4.661,1.527,6.793,4.191,9.06a13.368,13.368,0,1,1-17.291,0c2.661-2.26,4.188-4.4,4.188-9.06V10.4a4.461,4.461,0,0,1,4.456-4.456Zm0-5.941a10.4,10.4,0,0,0-10.4,10.4V32.749a5.948,5.948,0,0,1-2.094,4.53,19.308,19.308,0,1,0,24.981,0,5.948,5.948,0,0,1-2.094-4.53V10.4A10.4,10.4,0,0,0,21.308,0Zm6.259,43.719c-3.006-2.644-4.773-5.151-4.773-9.565V29.7h-2.97v4.45c0,4.408-1.773,6.927-4.773,9.565a11.062,11.062,0,0,0-4.138,8.264,10.4,10.4,0,1,0,20.793,0A11.067,11.067,0,0,0,27.566,43.719Z" transform="translate(-2)" fill="#fff"/>
</svg>
