<svg xmlns="http://www.w3.org/2000/svg" width="60.166" height="40.111" viewBox="0 0 60.166 40.111">
  <path id="iconmonstr-weather-11" d="M51.2,22.842A14.774,14.774,0,0,0,35.072,9.074,14.924,14.924,0,0,0,23.816,4,14.758,14.758,0,0,0,8.97,17.828,10.706,10.706,0,0,0,10.915,39.1h3.324a10.93,10.93,0,0,0,9.21,5.014h25.8A10.706,10.706,0,0,0,51.2,22.842ZM12.6,34.083H10.915a5.817,5.817,0,0,1-5.9-5.711c0-5.31,5.275-6.51,8.744-6.3-.125-3.4.343-13.061,10.058-13.061a9.908,9.908,0,0,1,5.741,1.614A14.61,14.61,0,0,0,21.5,22.842a10.673,10.673,0,0,0-8.9,11.241Z" transform="translate(0 -4)" fill="#fff"/>
</svg>
