<svg xmlns="http://www.w3.org/2000/svg" width="71.29" height="59.408" viewBox="0 0 71.29 59.408">
  <path id="iconmonstr-weather-8" d="M7.117,31.7H0V25.763H7.117ZM29.7,12.521V2H23.763V12.521Zm-14.237,2.6-6.4-6.4-4.2,4.2,6.4,6.4Zm28.1-7.117-6.282,6.279,4.2,4.2,6.282-6.279ZM8.816,40.4,2.287,46.1l3.87,4.506,6.529-5.7ZM71.29,48.7A12.824,12.824,0,0,1,58.357,61.408H27.785A12.824,12.824,0,0,1,14.852,48.7a12.422,12.422,0,0,1,1.705-6.276A14.657,14.657,0,0,1,11.882,31.7,14.85,14.85,0,0,1,26.734,16.852a14.642,14.642,0,0,1,10.141,4.087,17.815,17.815,0,0,1,6.2-1.117A17.486,17.486,0,0,1,60.659,36.207,12.768,12.768,0,0,1,71.29,48.7Zm-53.468-17a8.778,8.778,0,0,0,2.837,6.452,12.956,12.956,0,0,1,4.824-1.949,17.172,17.172,0,0,1,5.923-12.018,8.756,8.756,0,0,0-4.672-1.4A8.922,8.922,0,0,0,17.823,31.7Zm47.527,17c0-6.167-5.878-7.777-10.364-7.462.648-4.274-.713-15.476-11.914-15.476-11.51,0-12.066,11.448-11.914,15.473-4.114-.25-10.364,1.173-10.364,7.465a6.89,6.89,0,0,0,6.992,6.767H58.354A6.891,6.891,0,0,0,65.349,48.7Z" transform="translate(0 -2)" />
</svg>
